# xmcd
# Copyright (C) 1995-1998 Ti Kan
#
# Track frame offsets:
#       150
#       17801
#       35045
#       50667
#       68876
#       86899
#       100769
#       115653
#       134345
#       148769
#       170917
#
# Disc length: 2548 seconds
#
# Revision: 0
# Processed by: cddbd v1.5.2PL0 Copyright (c) Steve Scherf et al.
# Submitted via: CD-Transfer v1.0
#
DISCID=a309f20b
DTITLE=Anshelle - Rewind Please [CD)
DYEAR=07
DGENRE=
TTITLE0=Little Mountain (Radio Edit)
TTITLE1=Rewind Please (Radio Edit)
TTITLE2=Stereophonic Girlfriends (Radio Edit)
TTITLE3=Hayfield (Bring Me Back) (Radio Edit)
TTITLE4=Soulmate (Radio Edit)
TTITLE5=Unperfect Woman (Radio Edit)
TTITLE6=Bye Bye (Radio Edit)
TTITLE7=Faith (Radio Edit)
TTITLE8=She Might He (Radio Edit)
TTITLE9=I'm Alright (Radio Edit)
TTITLE10=Taking Over Me (Radio Edit)
EXTD=
EXTT0=
EXTT1=
EXTT2=
EXTT3=
EXTT4=
EXTT5=
EXTT6=
EXTT7=
EXTT8=
EXTT9=
EXTT10=
PLAYORDER=
